<?xml version="1.0" standalone="no"?>
<!DOCTYPE svg PUBLIC "-//W3C//DTD SVG 20010904//EN"
 "http://www.w3.org/TR/2001/REC-SVG-20010904/DTD/svg10.dtd">
<svg version="1.0" xmlns="http://www.w3.org/2000/svg"
 width="500.000000pt" height="464.000000pt" viewBox="0 0 500.000000 464.000000"
 preserveAspectRatio="xMidYMid meet">

<g transform="translate(0.000000,464.000000) scale(0.100000,-0.100000)"
fill="#000000" stroke="none">
<path d="M2390 4243 c-124 -1 -596 -7 -1049 -13 -919 -13 -851 -7 -937 -82
-71 -62 -74 -78 -74 -398 0 -157 4 -537 10 -845 5 -308 14 -920 20 -1360 10
-799 18 -992 42 -1043 16 -32 108 -98 155 -111 34 -10 1634 3 2081 17 l234 7
-32 40 c-42 52 -95 163 -117 245 -26 97 -23 319 5 423 34 123 74 191 320 548
127 185 234 343 237 351 5 12 -16 16 -123 21 -245 13 -468 63 -615 140 -111
57 -178 122 -224 215 -35 69 -38 83 -41 176 -6 181 49 345 178 528 39 55 65
97 58 93 -7 -4 -5 0 5 8 10 9 18 18 17 22 -1 4 26 48 61 98 35 51 69 102 76
115 11 20 10 21 -7 12 -11 -6 -61 -10 -112 -9 -118 1 -491 -12 -500 -17 -4 -3
-42 -7 -85 -10 -43 -3 -91 -8 -108 -10 -16 -2 -65 -7 -109 -10 -53 -4 -74 -9
-65 -16 10 -6 1 -8 -26 -7 -74 3 -95 0 -89 -15 3 -8 0 -14 -8 -13 -15 1 -86
-12 -108 -20 -14 -5 -31 -8 -113 -18 -20 -2 -43 -7 -50 -12 -6 -4 -21 -9 -32
-10 -11 -2 -27 -6 -35 -10 -8 -3 -17 -7 -20 -7 -3 -1 -25 -7 -50 -15 -25 -7
-52 -15 -60 -18 -13 -4 -13 -5 0 -14 12 -9 12 -10 -2 -5 -10 3 -24 9 -32 12
-7 3 -16 -2 -20 -12 -5 -14 -4 -15 9 -4 13 11 14 10 9 -4 -7 -18 -13 -19 -33
-7 -17 11 -53 -8 -44 -23 4 -5 -1 -7 -10 -3 -8 3 -18 0 -20 -8 -3 -7 -24 -16
-46 -20 -22 -3 -50 -15 -62 -26 -12 -10 -31 -19 -41 -19 -10 0 -21 -7 -24 -15
-4 -8 -13 -15 -21 -15 -8 0 -27 -8 -41 -18 -44 -31 -56 -36 -48 -24 4 7 2 12
-3 12 -6 0 -11 -7 -11 -15 0 -14 -12 -19 -32 -16 -5 0 -8 -3 -8 -8 0 -5 -10
-11 -22 -13 -25 -3 -25 -2 -27 -90 0 -34 -3 -59 -5 -57 -2 2 -11 83 -20 179
-22 236 -70 599 -107 802 -16 92 -27 178 -24 191 9 32 51 72 98 92 49 20 126
22 1847 40 773 8 1424 17 1448 19 42 4 180 63 181 79 1 6 -953 6 -1599 0z
m-300 -2457 c0 -379 0 -385 20 -388 12 -2 21 -7 20 -13 0 -6 -66 -10 -176 -10
l-176 0 -22 26 c-22 25 -23 37 -30 252 -7 246 -4 267 45 292 40 21 99 28 147
17 l44 -10 -4 94 c-3 80 -5 94 -20 94 -19 0 -31 14 -21 24 3 3 44 6 90 6 l83
0 0 -384z m240 314 l0 -70 -65 0 -65 0 0 70 0 70 65 0 65 0 0 -70z m-1230 -51
l0 -101 42 3 c26 2 43 -1 46 -9 2 -8 -10 -12 -42 -12 l-46 0 1 -147 c1 -82 4
-202 8 -268 l6 -120 45 -5 c62 -7 47 -25 -20 -24 -62 1 -124 26 -146 59 -11
16 -16 80 -21 263 -6 226 -7 242 -25 242 -10 0 -18 5 -18 10 0 6 9 10 20 10
18 0 20 7 20 85 l0 84 48 15 c85 26 82 29 82 -85z m1637 -100 c67 -32 73 -56
73 -279 0 -219 -4 -236 -73 -269 -32 -15 -63 -21 -115 -21 -82 0 -125 15 -162
54 -25 27 -25 29 -28 238 -3 177 -1 213 13 234 45 70 192 91 292 43z m-403
-56 c3 -42 6 -170 6 -285 0 -201 1 -208 20 -208 11 0 20 -4 20 -9 0 -13 -53
-21 -136 -21 -59 0 -74 3 -74 15 0 8 9 15 20 15 19 0 20 7 20 98 0 53 -3 175
-7 270 -6 158 -8 172 -25 172 -10 0 -18 7 -18 15 0 12 16 15 84 15 l83 0 7
-77z m-941 -40 c4 -58 7 -181 7 -273 0 -175 4 -190 46 -190 56 0 54 -9 54 275
0 258 0 264 -20 267 -12 2 -21 8 -20 13 0 6 37 11 85 13 l85 3 0 -286 0 -285
25 0 c14 0 25 -4 25 -9 0 -11 -170 -19 -176 -9 -3 4 -16 3 -30 -2 -32 -13
-105 -13 -137 -1 -57 22 -67 46 -67 156 0 56 -3 170 -7 253 -6 139 -8 152 -25
152 -18 0 -24 11 -11 23 3 4 41 7 83 7 l77 0 6 -107z m-596 86 c15 -5 40 -22
56 -37 23 -22 27 -34 27 -78 l0 -52 -61 -4 c-33 -1 -63 -1 -65 1 -2 2 -4 34
-4 71 0 70 -10 90 -45 90 -12 0 -26 -5 -33 -12 -13 -13 -17 -124 -6 -153 4 -9
45 -42 93 -74 119 -80 125 -88 129 -172 5 -78 -8 -107 -60 -139 -77 -46 -221
-30 -272 31 -20 24 -26 41 -26 80 l0 49 65 0 65 0 0 -69 c0 -78 11 -94 62 -89
l33 3 3 74 c4 93 -5 106 -113 177 -47 30 -91 65 -100 77 -10 14 -15 45 -15 88
0 75 20 111 74 135 37 16 154 18 193 3z m1634 -671 c0 -29 0 -77 -1 -105 -1
-32 3 -53 9 -53 6 0 11 -4 11 -10 0 -5 -17 -10 -37 -10 -29 0 -34 3 -25 12 17
17 16 185 0 191 -10 4 -9 8 2 16 31 22 40 12 41 -41z m-1151 -7 l0 -49 31 11
c27 11 32 10 45 -7 8 -11 14 -43 14 -72 0 -33 5 -54 13 -57 6 -3 -6 -6 -27 -6
-31 -1 -37 2 -28 11 7 7 12 34 12 60 0 52 -18 71 -45 48 -18 -15 -20 -91 -3
-108 9 -9 3 -12 -28 -11 -21 0 -33 3 -26 6 17 7 17 193 0 193 -14 1 20 30 34
30 4 0 8 -22 8 -49z m-79 10 c24 -29 24 -43 1 -71 -12 -14 -30 -23 -50 -24
-31 -1 -32 -3 -32 -43 0 -31 4 -43 18 -46 9 -3 -5 -5 -33 -5 -27 0 -44 2 -37
5 8 3 12 33 12 99 0 78 -3 94 -16 94 -8 0 -13 4 -10 9 3 4 33 7 67 7 51 -2 65
-6 80 -25z m422 -42 c21 -2 21 -2 -1 -6 -21 -4 -23 -9 -20 -61 3 -51 5 -57 23
-54 19 3 19 2 3 -14 -28 -29 -48 -11 -49 46 -2 69 -2 70 -19 80 -10 7 -11 10
-2 10 7 0 18 12 25 27 l12 28 3 -28 c2 -20 9 -27 25 -28z m887 -54 c0 -29 5
-57 10 -60 18 -11 10 -20 -20 -21 -17 -1 -30 3 -30 7 0 5 5 9 10 9 11 0 14 69
4 94 -3 9 -16 16 -28 16 -20 1 -20 1 -2 15 13 10 24 11 37 4 15 -8 19 -21 19
-64z m180 65 c0 -4 -3 -10 -7 -14 -4 -3 -23 -45 -42 -93 -37 -89 -56 -111 -85
-100 -23 9 -10 27 19 27 42 0 42 39 2 114 l-35 66 29 0 c20 0 27 -4 23 -14 -5
-13 21 -76 31 -76 9 0 34 71 29 83 -3 8 4 13 16 13 11 0 20 -3 20 -6z m-917
-32 c9 -11 17 -33 17 -50 0 -34 -39 -78 -70 -78 -32 0 -70 44 -70 80 0 44 42
84 78 76 15 -4 35 -16 45 -28z m177 14 c3 -2 0 -7 -6 -9 -7 -2 -10 -12 -7 -23
6 -24 -30 -60 -62 -60 -14 0 -25 -4 -25 -10 0 -5 20 -10 45 -10 35 0 47 -4 56
-21 17 -33 -22 -69 -77 -69 -50 0 -71 19 -54 50 6 11 8 25 5 31 -4 5 -1 17 6
25 9 11 9 18 1 26 -19 19 -14 56 11 73 16 11 33 14 62 9 22 -3 42 -9 45 -12z
m65 8 c-8 -14 8 -13 22 1 13 13 33 4 33 -16 0 -9 -9 -14 -22 -12 -21 2 -23 -3
-26 -47 -2 -32 1 -52 10 -57 8 -6 -2 -8 -27 -8 -22 0 -34 3 -27 6 15 6 17 113
2 113 -17 0 -11 18 8 23 29 8 33 7 27 -3z m163 -2 c7 -7 12 -36 12 -66 0 -37
3 -51 11 -46 7 4 10 1 7 -7 -6 -17 -48 -25 -48 -8 0 9 -3 9 -14 -1 -25 -20
-61 -8 -64 22 -3 22 4 31 37 50 43 24 51 42 25 52 -20 8 -34 -1 -34 -20 0 -8
-7 -14 -15 -14 -19 0 -19 14 1 34 18 19 65 21 82 4z m82 0 c0 -9 3 -9 12 0 17
17 54 15 72 -4 9 -9 16 -32 16 -55 0 -51 -30 -83 -71 -77 -26 4 -29 2 -29 -23
0 -16 7 -32 18 -38 13 -8 8 -10 -27 -11 -40 0 -43 2 -27 13 16 12 18 25 15 96
-3 56 -9 85 -18 90 -11 7 -10 10 5 14 31 8 34 7 34 -5z m-740 -18 c43 -43 9
-130 -51 -130 -32 0 -69 40 -69 75 0 62 78 97 120 55z"/>
<path d="M1862 1923 c-4 -10 -6 -130 -2 -268 l5 -250 45 0 45 0 3 259 c2 201
-1 261 -10 268 -24 15 -77 9 -86 -9z"/>
<path d="M2570 1935 c-15 -18 -4 -503 12 -522 15 -19 64 -16 84 4 15 16 16 39
10 267 -4 138 -10 254 -12 258 -9 14 -81 9 -94 -7z"/>
<path d="M1119 1276 c-3 -3 -3 -23 -1 -46 4 -35 7 -41 25 -38 30 5 43 31 29
62 -10 23 -40 35 -53 22z"/>
<path d="M1692 1208 c-15 -15 -15 -50 0 -83 9 -20 18 -25 37 -23 21 2 27 9 29
34 6 64 -32 106 -66 72z"/>
<path d="M1863 1223 c-18 -6 -16 -58 3 -73 22 -19 47 8 39 43 -7 27 -21 37
-42 30z"/>
<path d="M1841 1077 c-17 -17 7 -37 44 -37 28 0 66 24 54 34 -12 10 -89 12
-98 3z"/>
<path d="M2128 1159 c-19 -11 -24 -34 -9 -43 18 -11 41 6 41 30 0 26 -6 29
-32 13z"/>
<path d="M2278 1209 c-12 -7 -18 -22 -18 -48 0 -75 62 -81 68 -7 3 34 -10 66
-27 66 -3 0 -14 -5 -23 -11z"/>
<path d="M1438 1195 c-13 -30 -1 -83 24 -98 40 -26 66 53 32 101 -20 29 -42
28 -56 -3z"/>
<path d="M3039 3644 c-35 -77 -75 -224 -84 -309 -8 -76 9 -185 40 -253 33 -72
115 -148 211 -196 101 -50 280 -95 408 -103 90 -5 250 8 291 23 25 10 73 124
91 213 39 199 -11 338 -154 430 -94 59 -269 99 -407 93 -100 -5 -60 -22 50
-21 169 1 333 -53 416 -137 24 -24 39 -44 34 -44 -5 0 0 -7 11 -15 20 -16 12
-15 -33 2 -31 11 -37 12 -93 24 -30 6 -58 16 -62 22 -6 9 -8 9 -8 0 0 -7 -10
-13 -22 -13 -19 0 -20 2 -8 10 11 7 3 9 -27 6 -23 -2 -40 0 -38 4 8 12 -37 20
-56 10 -11 -7 -19 -6 -21 1 -2 5 -25 11 -51 12 -26 1 -47 4 -47 7 0 3 -28 6
-63 7 -34 1 -107 7 -162 12 -163 16 -215 18 -215 9 0 -4 -7 -8 -15 -8 -8 0
-15 8 -15 18 0 24 35 168 54 220 23 64 9 50 -25 -24z"/>
<path d="M4613 3483 c-21 -48 -159 -277 -294 -491 -71 -112 -128 -206 -127
-208 2 -2 58 -4 123 -6 66 -2 123 -6 126 -11 3 -4 49 -10 102 -14 l97 -6 -1
329 c-1 181 -4 353 -7 382 -7 52 -7 52 -19 25z m-158 -400 c-10 -43 -17 -18
-8 34 6 39 8 43 11 19 2 -15 1 -40 -3 -53z"/>
<path d="M3640 2021 c-39 -11 -140 -168 -174 -271 -76 -230 -31 -415 143 -591
193 -195 377 -218 657 -84 266 128 392 400 284 615 -83 164 -286 287 -540 325
-97 15 -325 19 -370 6z"/>
<path d="M4431 853 c-123 -128 -228 -233 -233 -233 -6 0 -4 8 3 17 8 9 -2 5
-22 -10 -20 -15 -43 -27 -51 -27 -9 0 -29 -7 -44 -15 -16 -8 -42 -15 -59 -15
-16 0 -46 -4 -65 -9 -19 -5 -62 -13 -95 -16 -33 -4 -73 -9 -90 -11 -35 -4
-323 -23 -345 -22 -8 0 -35 -2 -60 -5 -25 -3 -154 -7 -287 -8 -199 -3 -244 -1
-259 11 -10 8 -4 -6 14 -31 l32 -47 542 5 543 5 37 25 c20 13 71 53 114 89 42
35 80 64 83 64 9 -1 -65 -65 -144 -125 -114 -86 -123 -80 133 -77 125 1 256 7
292 12 83 12 135 48 172 119 28 53 28 54 27 240 -1 102 -4 211 -8 242 l-6 56
-224 -234z"/>
</g>
</svg>
